<svg width="11369" height="2912" viewBox="0 0 11369 2912" fill="none" xmlns="http://www.w3.org/2000/svg">
<rect x="0.660156" y="0.167969" width="11367.8" height="2911.41" fill="#FFC961"/>
<path d="M9798.61 2157.77L9235.6 2246.31L9235.6 2069.24L9798.61 2157.77Z" fill="#5A4D47"/>
<rect x="0.660156" y="2069.24" width="9234.94" height="177.073" fill="#5A4D47"/>
<rect x="0.660156" y="0.167969" width="1233.34" height="2911.41" fill="#38322F"/>
<path d="M4338.2 1718.33C4302.4 1718.33 4271.58 1709.87 4245.73 1692.97C4219.88 1676.07 4199.99 1652.78 4186.07 1623.12C4172.15 1593.46 4165.19 1559.57 4165.19 1521.45C4165.19 1482.67 4172.31 1448.45 4186.57 1418.79C4200.98 1388.96 4221.04 1365.67 4246.72 1348.94C4272.58 1332.03 4302.74 1323.58 4337.21 1323.58C4364.05 1323.58 4388.25 1328.55 4409.79 1338.5C4431.33 1348.44 4448.98 1362.36 4462.74 1380.26C4476.49 1398.16 4485.03 1419.04 4488.34 1442.9H4429.68C4425.2 1425.5 4415.26 1410.09 4399.85 1396.66C4384.6 1383.07 4364.05 1376.28 4338.2 1376.28C4315.33 1376.28 4295.28 1382.25 4278.04 1394.18C4260.97 1405.94 4247.63 1422.6 4238.02 1444.14C4228.58 1465.52 4223.85 1490.63 4223.85 1519.46C4223.85 1548.96 4228.49 1574.65 4237.77 1596.52C4247.22 1618.4 4260.48 1635.38 4277.55 1647.48C4294.78 1659.58 4315 1665.63 4338.2 1665.63C4353.45 1665.63 4367.28 1662.98 4379.71 1657.67C4392.14 1652.37 4402.67 1644.75 4411.28 1634.8C4419.9 1624.86 4426.03 1612.93 4429.68 1599.01H4488.34C4485.03 1621.55 4476.82 1641.85 4463.73 1659.91C4450.81 1677.81 4433.65 1692.06 4412.28 1702.67C4391.06 1713.11 4366.37 1718.33 4338.2 1718.33ZM4632.77 1480.68V1710.37H4574.1V1201.28H4632.77V1388.21H4637.74C4646.69 1368.49 4660.11 1352.83 4678.01 1341.23C4696.07 1329.46 4720.1 1323.58 4750.1 1323.58C4776.11 1323.58 4798.9 1328.8 4818.46 1339.24C4838.01 1349.52 4853.17 1365.34 4863.95 1386.72C4874.88 1407.93 4880.35 1434.94 4880.35 1467.76V1710.37H4821.69V1471.73C4821.69 1441.41 4813.82 1417.96 4798.07 1401.39C4782.49 1384.65 4760.87 1376.28 4733.19 1376.28C4713.97 1376.28 4696.73 1380.34 4681.49 1388.46C4666.41 1396.58 4654.48 1408.43 4645.69 1424.01C4637.08 1439.59 4632.77 1458.48 4632.77 1480.68ZM5147.76 1718.33C5110.97 1718.33 5079.24 1710.21 5052.56 1693.96C5026.04 1677.56 5005.57 1654.69 4991.16 1625.36C4976.9 1595.86 4969.78 1561.55 4969.78 1522.44C4969.78 1483.34 4976.9 1448.87 4991.16 1419.04C5005.57 1389.04 5025.63 1365.67 5051.31 1348.94C5077.17 1332.03 5107.33 1323.58 5141.8 1323.58C5161.68 1323.58 5181.32 1326.9 5200.71 1333.52C5220.1 1340.15 5237.75 1350.93 5253.66 1365.84C5269.57 1380.59 5282.24 1400.14 5291.69 1424.5C5301.14 1448.87 5305.86 1478.86 5305.86 1514.49V1539.35H5011.54V1488.64H5246.2C5246.2 1467.09 5241.89 1447.87 5233.27 1430.97C5224.82 1414.06 5212.72 1400.72 5196.98 1390.95C5181.4 1381.17 5163.01 1376.28 5141.8 1376.28C5118.43 1376.28 5098.21 1382.08 5081.14 1393.68C5064.24 1405.12 5051.23 1420.03 5042.12 1438.43C5033 1456.82 5028.44 1476.54 5028.44 1497.59V1531.39C5028.44 1560.23 5033.42 1584.67 5043.36 1604.72C5053.47 1624.61 5067.47 1639.77 5085.37 1650.21C5103.27 1660.49 5124.06 1665.63 5147.76 1665.63C5163.17 1665.63 5177.09 1663.47 5189.52 1659.16C5202.12 1654.69 5212.97 1648.06 5222.09 1639.28C5231.2 1630.33 5238.24 1619.23 5243.22 1605.97L5299.89 1621.88C5293.93 1641.1 5283.9 1658 5269.81 1672.59C5255.73 1687 5238.33 1698.27 5217.61 1706.39C5196.9 1714.35 5173.61 1718.33 5147.76 1718.33ZM5555.18 1718.33C5518.39 1718.33 5486.66 1710.21 5459.98 1693.96C5433.46 1677.56 5413 1654.69 5398.58 1625.36C5384.33 1595.86 5377.2 1561.55 5377.2 1522.44C5377.2 1483.34 5384.33 1448.87 5398.58 1419.04C5413 1389.04 5433.05 1365.67 5458.73 1348.94C5484.59 1332.03 5514.75 1323.58 5549.22 1323.58C5569.1 1323.58 5588.74 1326.9 5608.13 1333.52C5627.52 1340.15 5645.17 1350.93 5661.08 1365.84C5676.99 1380.59 5689.67 1400.14 5699.11 1424.5C5708.56 1448.87 5713.28 1478.86 5713.28 1514.49V1539.35H5418.96V1488.64H5653.62C5653.62 1467.09 5649.31 1447.87 5640.7 1430.97C5632.24 1414.06 5620.15 1400.72 5604.4 1390.95C5588.82 1381.17 5570.43 1376.28 5549.22 1376.28C5525.85 1376.28 5505.63 1382.08 5488.56 1393.68C5471.66 1405.12 5458.65 1420.03 5449.54 1438.43C5440.42 1456.82 5435.87 1476.54 5435.87 1497.59V1531.39C5435.87 1560.23 5440.84 1584.67 5450.78 1604.72C5460.89 1624.61 5474.89 1639.77 5492.79 1650.21C5510.69 1660.49 5531.49 1665.63 5555.18 1665.63C5570.6 1665.63 5584.52 1663.47 5596.95 1659.16C5609.54 1654.69 5620.39 1648.06 5629.51 1639.28C5638.62 1630.33 5645.67 1619.23 5650.64 1605.97L5707.31 1621.88C5701.35 1641.1 5691.32 1658 5677.24 1672.59C5663.15 1687 5645.75 1698.27 5625.03 1706.39C5604.32 1714.35 5581.04 1718.33 5555.18 1718.33ZM5802.52 1710.37V1328.55H5859.2V1386.22H5863.17C5870.13 1367.33 5882.73 1352 5900.96 1340.24C5919.19 1328.47 5939.74 1322.59 5962.61 1322.59C5966.91 1322.59 5972.3 1322.67 5978.76 1322.84C5985.23 1323 5990.12 1323.25 5993.43 1323.58V1383.24C5991.44 1382.74 5986.88 1382 5979.76 1381C5972.8 1379.84 5965.42 1379.26 5957.63 1379.26C5939.07 1379.26 5922.5 1383.16 5907.92 1390.95C5893.5 1398.57 5882.07 1409.18 5873.61 1422.76C5865.33 1436.19 5861.19 1451.52 5861.19 1468.75V1710.37H5802.52ZM6333.42 1414.06L6280.73 1428.98C6277.41 1420.2 6272.52 1411.66 6266.06 1403.38C6259.76 1394.92 6251.14 1387.96 6240.21 1382.49C6229.27 1377.03 6215.27 1374.29 6198.2 1374.29C6174.83 1374.29 6155.36 1379.68 6139.78 1390.45C6124.37 1401.06 6116.66 1414.56 6116.66 1430.97C6116.66 1445.55 6121.97 1457.07 6132.57 1465.52C6143.18 1473.97 6159.75 1481.02 6182.29 1486.65L6238.96 1500.57C6273.1 1508.86 6298.54 1521.53 6315.28 1538.6C6332.02 1555.51 6340.38 1577.3 6340.38 1603.98C6340.38 1625.85 6334.09 1645.41 6321.49 1662.64C6309.06 1679.88 6291.66 1693.47 6269.29 1703.41C6246.92 1713.35 6220.9 1718.33 6191.24 1718.33C6152.29 1718.33 6120.06 1709.87 6094.54 1692.97C6069.02 1676.07 6052.86 1651.37 6046.07 1618.89L6101.75 1604.97C6107.05 1625.52 6117.08 1640.93 6131.83 1651.21C6146.74 1661.48 6166.21 1666.62 6190.24 1666.62C6217.59 1666.62 6239.3 1660.82 6255.37 1649.22C6271.61 1637.45 6279.73 1623.37 6279.73 1606.96C6279.73 1593.7 6275.09 1582.6 6265.81 1573.65C6256.53 1564.54 6242.28 1557.74 6223.05 1553.27L6159.42 1538.35C6124.45 1530.07 6098.77 1517.22 6082.36 1499.82C6066.12 1482.26 6058 1460.3 6058 1433.95C6058 1412.41 6064.05 1393.35 6076.14 1376.78C6088.41 1360.21 6105.06 1347.2 6126.11 1337.75C6147.32 1328.3 6171.35 1323.58 6198.2 1323.58C6235.98 1323.58 6265.64 1331.87 6287.19 1348.44C6308.9 1365.01 6324.31 1386.89 6333.42 1414.06ZM6791.62 1328.55V1378.27H6593.75V1328.55H6791.62ZM6651.42 1237.08H6710.08V1601C6710.08 1617.57 6712.49 1630 6717.29 1638.28C6722.26 1646.4 6728.56 1651.87 6736.19 1654.69C6743.97 1657.34 6752.18 1658.67 6760.79 1658.67C6767.26 1658.67 6772.56 1658.34 6776.7 1657.67C6780.85 1656.84 6784.16 1656.18 6786.65 1655.68L6798.58 1708.38C6794.6 1709.87 6789.05 1711.37 6781.92 1712.86C6774.8 1714.51 6765.77 1715.34 6754.83 1715.34C6738.26 1715.34 6722.02 1711.78 6706.11 1704.65C6690.36 1697.53 6677.27 1686.67 6666.83 1672.09C6656.56 1657.51 6651.42 1639.11 6651.42 1616.91V1237.08ZM7030.88 1718.33C6996.41 1718.33 6966.16 1710.12 6940.14 1693.72C6914.29 1677.31 6894.07 1654.36 6879.49 1624.86C6865.07 1595.36 6857.86 1560.89 6857.86 1521.45C6857.86 1481.68 6865.07 1446.96 6879.49 1417.3C6894.07 1387.63 6914.29 1364.6 6940.14 1348.19C6966.16 1331.78 6996.41 1323.58 7030.88 1323.58C7065.35 1323.58 7095.51 1331.78 7121.36 1348.19C7147.38 1364.6 7167.59 1387.63 7182.01 1417.3C7196.6 1446.96 7203.89 1481.68 7203.89 1521.45C7203.89 1560.89 7196.6 1595.36 7182.01 1624.86C7167.59 1654.36 7147.38 1677.31 7121.36 1693.72C7095.51 1710.12 7065.35 1718.33 7030.88 1718.33ZM7030.88 1665.63C7057.06 1665.63 7078.6 1658.92 7095.51 1645.49C7112.41 1632.07 7124.92 1614.42 7133.04 1592.54C7141.16 1570.67 7145.22 1546.97 7145.22 1521.45C7145.22 1495.93 7141.16 1472.15 7133.04 1450.11C7124.92 1428.07 7112.41 1410.25 7095.51 1396.66C7078.6 1383.07 7057.06 1376.28 7030.88 1376.28C7004.69 1376.28 6983.15 1383.07 6966.25 1396.66C6949.34 1410.25 6936.83 1428.07 6928.71 1450.11C6920.59 1472.15 6916.53 1495.93 6916.53 1521.45C6916.53 1546.97 6920.59 1570.67 6928.71 1592.54C6936.83 1614.42 6949.34 1632.07 6966.25 1645.49C6983.15 1658.92 7004.69 1665.63 7030.88 1665.63Z" fill="black"/>
<path d="M8953.46 1368.22L9188.52 1775.35L9423.58 1368.22L8953.46 1368.22Z" fill="#2C053F"/>
<rect width="415.67" height="653.379" transform="matrix(-1 0 0 1 9188.52 1128.58)" fill="#461D4D"/>
<path d="M8893.03 1736.06L9081.15 1126.17L8704.92 1126.17L8893.03 1736.06Z" fill="#584CA0"/>
<rect width="36.4078" height="349.421" transform="matrix(-1 0 0 1 9049.38 1719.81)" fill="#122120"/>
<rect width="36.4078" height="349.421" transform="matrix(-1 0 0 1 8851.96 1719.81)" fill="#122120"/>
<rect x="8686.99" y="782.966" width="500.522" height="351.577" fill="#5A288B"/>
<rect x="8848.06" y="738.802" width="178.387" height="44.1637" fill="#5A288B"/>
<circle cx="8937.25" cy="958.756" r="131.192" fill="white"/>
<path d="M8360.2 958.755L8686.99 782.967L8686.99 1134.54L8360.2 958.755Z" fill="#FF0000"/>
<path d="M8360.2 958.755L8686.99 782.966L8686.99 1059.6L8360.2 958.755Z" fill="#FFA928"/>
<path d="M8932.19 996.495C8930.36 994.215 8925.79 989.77 8922.04 986.617C8910.91 977.275 8909.4 975.923 8904.88 971.298C8896.56 962.772 8893.02 954.206 8893.04 942.591C8893.04 936.921 8893.39 934.737 8894.82 931.395C8897.24 925.725 8900.81 921.511 8905.37 918.934C8908.6 917.109 8910.19 916.298 8915.59 916.265C8921.23 916.23 8922.42 916.962 8925.74 918.991C8929.78 921.46 8933.94 926.736 8934.8 930.485L8935.33 932.8L8936.64 929.611C8944.04 911.594 8967.66 911.863 8975.88 930.059C8978.49 935.831 8978.78 948.156 8976.47 955.099C8973.45 964.155 8967.78 971.06 8954.68 981.64C8946.09 988.579 8936.37 999.077 8935.69 1000.55C8934.91 1002.26 8935.66 1000.82 8932.19 996.495Z" fill="black"/>
</svg>
