<svg width="11369" height="6111" viewBox="0 0 11369 6111" fill="none" xmlns="http://www.w3.org/2000/svg">
<rect x="0.658203" y="0.416016" width="11367.8" height="6110.19" fill="#C9E5FF"/>
<path d="M9798.6 5356.81L9235.6 5445.35L9235.6 5268.27L9798.6 5356.81Z" fill="#5A4D47"/>
<rect x="0.658203" y="5268.27" width="9234.94" height="177.073" fill="#5A4D47"/>
<rect x="0.658203" y="0.416016" width="1233.34" height="6110.19" fill="#38322F"/>
<path d="M3180.93 3932.38L2733.31 4707.68L2285.69 3932.38L3180.93 3932.38Z" fill="#463F73"/>
<rect x="2733.31" y="3476.03" width="791.563" height="1244.23" fill="#3B4B82"/>
<path d="M3296.01 4632.86L2937.78 3471.45L3654.23 3471.45L3296.01 4632.86Z" fill="#4F0C0C"/>
<rect x="2998.28" y="4601.91" width="69.3315" height="665.405" fill="#122120"/>
<rect x="3374.22" y="4601.91" width="69.3315" height="665.405" fill="#122120"/>
<rect width="953.147" height="669.511" transform="matrix(-0.866025 -0.5 -0.5 0.866025 3988.99 3352.57)" fill="#083650"/>
<rect width="339.703" height="84.1012" transform="matrix(-0.866025 -0.5 -0.5 0.866025 3765.41 3126.37)" fill="#083650"/>
<circle cx="249.83" cy="249.83" r="249.83" transform="matrix(-0.866025 -0.5 -0.5 0.866025 3750.16 3312.74)" fill="white"/>
<path d="M4360.55 3953.63L3988.99 3352.57L3654.23 3932.38L4360.55 3953.63Z" fill="#FF0000"/>
<path d="M4360.55 3953.63L3988.99 3352.56L3725.59 3808.79L4360.55 3953.63Z" fill="#FFA928"/>
<circle cx="52.5958" cy="52.5958" r="52.5958" transform="matrix(-0.866025 -0.5 -0.5 0.866025 3552.58 3405.16)" fill="black"/>
<path d="M5416.87 4497.08L5675.46 4944.97L5934.05 4497.08L5416.87 4497.08Z" fill="#072B1C"/>
<rect width="457.284" height="718.792" transform="matrix(-1 0 0 1 5675.46 4233.45)" fill="#274F45"/>
<path d="M5350.39 4901.75L5557.34 4230.8L5143.44 4230.8L5350.39 4901.75Z" fill="#32643D"/>
<rect width="40.0527" height="384.403" transform="matrix(-1 0 0 1 5522.39 4883.87)" fill="#122120"/>
<rect width="40.0527" height="384.403" transform="matrix(-1 0 0 1 5305.21 4883.87)" fill="#122120"/>
<rect x="5112.09" y="3873.08" width="550.631" height="386.775" fill="#3B5034"/>
<rect x="5289.29" y="3824.49" width="196.246" height="48.5851" fill="#3B5034"/>
<circle cx="5387.41" cy="4066.47" r="144.326" fill="white"/>
<path d="M4752.58 4066.47L5112.09 3873.08L5112.09 4259.86L4752.58 4066.47Z" fill="#FF0000"/>
<path d="M4752.58 4066.47L5112.09 3873.08L5112.09 4177.41L4752.58 4066.47Z" fill="#FFA928"/>
<circle cx="5315.56" cy="4035.09" r="30.3845" fill="black"/>
<path d="M6428.46 4566.31L6663.52 4973.44L6898.57 4566.31L6428.46 4566.31Z" fill="#A31717"/>
<rect width="415.67" height="653.379" transform="matrix(-1 0 0 1 6663.52 4326.67)" fill="#B55D38"/>
<path d="M6368.03 4934.15L6556.14 4324.26L6179.92 4324.26L6368.03 4934.15Z" fill="#D5863D"/>
<rect width="36.4078" height="349.421" transform="matrix(-1 0 0 1 6524.38 4917.9)" fill="#122120"/>
<rect width="36.4078" height="349.421" transform="matrix(-1 0 0 1 6326.96 4917.9)" fill="#122120"/>
<rect x="6140.02" y="3897.31" width="588.662" height="413.489" transform="rotate(15 6140.02 3897.31)" fill="#9A7D71"/>
<rect x="6336.44" y="3896.17" width="209.8" height="51.9407" transform="rotate(15 6336.44 3896.17)" fill="#9A7D71"/>
<circle cx="6370.81" cy="4173.19" r="154.295" transform="rotate(15 6370.81 4173.19)" fill="white"/>
<path d="M5715.27 3997.53L6140.02 3897.31L6033 4296.71L5715.27 3997.53Z" fill="#FF0000"/>
<path d="M5715.27 3997.53L6140.02 3897.31L6055.81 4211.57L5715.27 3997.53Z" fill="#FFA928"/>
<circle cx="6322.99" cy="4132.37" r="32.4831" transform="rotate(15 6322.99 4132.37)" fill="black"/>
<path d="M7224.3 4566.31L7459.35 4973.44L7694.41 4566.31L7224.3 4566.31Z" fill="#2C053F"/>
<rect width="415.67" height="653.379" transform="matrix(-1 0 0 1 7459.35 4326.67)" fill="#461D4D"/>
<path d="M7163.87 4934.15L7351.98 4324.26L6975.75 4324.26L7163.87 4934.15Z" fill="#584CA0"/>
<rect width="36.4078" height="349.421" transform="matrix(-1 0 0 1 7320.21 4917.9)" fill="#122120"/>
<rect width="36.4078" height="349.421" transform="matrix(-1 0 0 1 7122.8 4917.9)" fill="#122120"/>
<rect width="500.522" height="351.577" transform="matrix(-1 -2.58096e-08 -2.58096e-08 1 7447.78 3980.84)" fill="#5A288B"/>
<rect width="178.387" height="44.1637" transform="matrix(-1 -2.58096e-08 -2.58096e-08 1 7286.71 3936.68)" fill="#5A288B"/>
<circle cx="131.192" cy="131.192" r="131.192" transform="matrix(-1 -2.58096e-08 -2.58096e-08 1 7328.71 4025.44)" fill="white"/>
<path d="M7774.57 4156.63L7447.78 3980.84L7447.78 4332.42L7774.57 4156.63Z" fill="#FF0000"/>
<path d="M7774.57 4156.63L7447.78 3980.84L7447.78 4257.48L7774.57 4156.63Z" fill="#FFA928"/>
<circle cx="27.6194" cy="27.6194" r="27.6194" transform="matrix(-1 -2.58096e-08 -2.58096e-08 1 7198.76 4132.37)" fill="black"/>
<path d="M8402.53 4566.31L8637.59 4973.44L8872.64 4566.31L8402.53 4566.31Z" fill="#38717D"/>
<rect width="415.67" height="653.379" transform="matrix(-1 0 0 1 8637.59 4326.67)" fill="#378AA4"/>
<path d="M8342.1 4934.15L8530.21 4324.26L8153.99 4324.26L8342.1 4934.15Z" fill="#83A7BC"/>
<rect width="36.4078" height="349.421" transform="matrix(-1 0 0 1 8498.45 4917.9)" fill="#122120"/>
<rect width="36.4078" height="349.421" transform="matrix(-1 0 0 1 8301.03 4917.9)" fill="#122120"/>
<rect x="8125.49" y="3999.09" width="500.522" height="351.577" fill="#188275"/>
<rect x="8286.56" y="3954.93" width="178.387" height="44.1637" fill="#188275"/>
<circle cx="8375.75" cy="4174.88" r="131.192" fill="white"/>
<path d="M7798.7 4174.88L8125.49 3999.09L8125.49 4350.67L7798.7 4174.88Z" fill="#FF0000"/>
<path d="M7798.7 4174.88L8125.49 3999.09L8125.49 4275.73L7798.7 4174.88Z" fill="#FFA928"/>
<circle cx="8342.1" cy="4248.11" r="27.6194" fill="black"/>
<path d="M5967.61 2217.42L5851.27 1835.6H5912.92L5995.45 2127.93H5999.43L6080.96 1835.6H6143.6L6224.14 2126.94H6228.12L6310.65 1835.6H6372.29L6255.96 2217.42H6198.29L6114.77 1924.1H6108.8L6025.28 2217.42H5967.61ZM6596.95 2225.37C6560.16 2225.37 6528.42 2217.25 6501.74 2201.01C6475.23 2184.61 6454.76 2161.74 6440.34 2132.4C6426.09 2102.91 6418.97 2068.6 6418.97 2029.49C6418.97 1990.38 6426.09 1955.91 6440.34 1926.08C6454.76 1896.09 6474.81 1872.72 6500.5 1855.98C6526.35 1839.08 6556.51 1830.63 6590.98 1830.63C6610.87 1830.63 6630.51 1833.94 6649.9 1840.57C6669.28 1847.2 6686.93 1857.97 6702.84 1872.89C6718.75 1887.64 6731.43 1907.19 6740.88 1931.55C6750.32 1955.91 6755.04 1985.91 6755.04 2021.54V2046.4H6460.73V1995.69H6695.39C6695.39 1974.14 6691.08 1954.92 6682.46 1938.02C6674.01 1921.11 6661.91 1907.77 6646.17 1897.99C6630.59 1888.22 6612.19 1883.33 6590.98 1883.33C6567.62 1883.33 6547.4 1889.13 6530.33 1900.73C6513.43 1912.16 6500.42 1927.08 6491.3 1945.47C6482.19 1963.87 6477.63 1983.59 6477.63 2004.64V2038.44C6477.63 2067.28 6482.6 2091.72 6492.54 2111.77C6502.65 2131.66 6516.66 2146.82 6534.55 2157.26C6552.45 2167.54 6573.25 2172.67 6596.95 2172.67C6612.36 2172.67 6626.28 2170.52 6638.71 2166.21C6651.3 2161.74 6662.16 2155.11 6671.27 2146.33C6680.39 2137.38 6687.43 2126.27 6692.4 2113.02L6749.08 2128.92C6743.11 2148.15 6733.09 2165.05 6719 2179.64C6704.91 2194.05 6687.51 2205.32 6666.8 2213.44C6646.08 2221.4 6622.8 2225.37 6596.95 2225.37ZM6852.24 2217.42V1708.33H6910.9V1896.25H6915.88C6920.18 1889.63 6926.15 1881.17 6933.77 1870.9C6941.56 1860.46 6952.67 1851.18 6967.08 1843.06C6981.67 1834.77 7001.39 1830.63 7026.25 1830.63C7058.39 1830.63 7086.73 1838.67 7111.26 1854.74C7135.79 1870.82 7154.93 1893.6 7168.68 1923.1C7182.44 1952.6 7189.31 1987.4 7189.31 2027.5C7189.31 2067.94 7182.44 2102.99 7168.68 2132.65C7154.93 2162.15 7135.87 2185.02 7111.51 2201.26C7087.15 2217.34 7059.06 2225.37 7027.24 2225.37C7002.71 2225.37 6983.08 2221.31 6968.33 2213.19C6953.58 2204.91 6942.23 2195.54 6934.27 2185.1C6926.32 2174.5 6920.18 2165.71 6915.88 2158.75H6908.92V2217.42H6852.24ZM6909.91 2026.51C6909.91 2055.35 6914.14 2080.78 6922.59 2102.82C6931.04 2124.7 6943.39 2141.85 6959.63 2154.28C6975.87 2166.54 6995.75 2172.67 7019.28 2172.67C7043.81 2172.67 7064.28 2166.21 7080.68 2153.29C7097.26 2140.19 7109.69 2122.63 7117.97 2100.59C7126.42 2078.38 7130.65 2053.69 7130.65 2026.51C7130.65 1999.66 7126.51 1975.47 7118.22 1953.92C7110.1 1932.22 7097.75 1915.06 7081.18 1902.47C7064.78 1889.71 7044.14 1883.33 7019.28 1883.33C6995.42 1883.33 6975.37 1889.38 6959.13 1901.47C6942.89 1913.41 6930.62 1930.14 6922.34 1951.69C6914.05 1973.07 6909.91 1998.01 6909.91 2026.51ZM7434.16 2225.37C7398.37 2225.37 7367.54 2216.92 7341.69 2200.02C7315.84 2183.12 7295.95 2159.83 7282.03 2130.17C7268.11 2100.5 7261.15 2066.61 7261.15 2028.5C7261.15 1989.72 7268.28 1955.5 7282.53 1925.84C7296.95 1896.01 7317 1872.72 7342.69 1855.98C7368.54 1839.08 7398.7 1830.63 7433.17 1830.63C7460.02 1830.63 7484.21 1835.6 7505.76 1845.54C7527.3 1855.49 7544.95 1869.41 7558.7 1887.31C7572.46 1905.2 7580.99 1926.08 7584.31 1949.95H7525.64C7521.17 1932.55 7511.22 1917.14 7495.81 1903.71C7480.57 1890.12 7460.02 1883.33 7434.16 1883.33C7411.29 1883.33 7391.24 1889.29 7374.01 1901.23C7356.94 1912.99 7343.6 1929.65 7333.99 1951.19C7324.54 1972.57 7319.82 1997.67 7319.82 2026.51C7319.82 2056.01 7324.46 2081.69 7333.74 2103.57C7343.18 2125.44 7356.44 2142.43 7373.51 2154.53C7390.75 2166.63 7410.96 2172.67 7434.16 2172.67C7449.41 2172.67 7463.25 2170.02 7475.68 2164.72C7488.11 2159.42 7498.63 2151.79 7507.25 2141.85C7515.86 2131.91 7522 2119.98 7525.64 2106.06H7584.31C7580.99 2128.59 7572.79 2148.89 7559.7 2166.96C7546.77 2184.86 7529.62 2199.11 7508.24 2209.71C7487.03 2220.15 7462.34 2225.37 7434.16 2225.37ZM7782.42 2226.37C7758.23 2226.37 7736.27 2221.81 7716.55 2212.7C7696.83 2203.42 7681.17 2190.08 7669.57 2172.67C7657.97 2155.11 7652.17 2133.9 7652.17 2109.04C7652.17 2087.16 7656.48 2069.43 7665.09 2055.84C7673.71 2042.09 7685.23 2031.32 7699.65 2023.53C7714.06 2015.74 7729.97 2009.94 7747.37 2006.13C7764.94 2002.15 7782.59 1999 7800.32 1996.68C7823.52 1993.7 7842.33 1991.46 7856.75 1989.97C7871.33 1988.31 7881.94 1985.58 7888.57 1981.77C7895.36 1977.95 7898.76 1971.33 7898.76 1961.88V1959.89C7898.76 1935.36 7892.05 1916.31 7878.62 1902.72C7865.37 1889.13 7845.23 1882.33 7818.22 1882.33C7790.21 1882.33 7768.26 1888.47 7752.35 1900.73C7736.44 1912.99 7725.25 1926.08 7718.79 1940L7663.11 1920.12C7673.05 1896.92 7686.31 1878.85 7702.88 1865.93C7719.62 1852.84 7737.85 1843.72 7757.57 1838.58C7777.45 1833.28 7797.01 1830.63 7816.23 1830.63C7828.49 1830.63 7842.58 1832.12 7858.49 1835.1C7874.56 1837.92 7890.06 1843.8 7904.97 1852.75C7920.05 1861.7 7932.57 1875.21 7942.51 1893.27C7952.45 1911.33 7957.42 1935.53 7957.42 1965.86V2217.42H7898.76V2165.71H7895.78C7891.8 2174 7885.17 2182.87 7875.89 2192.31C7866.61 2201.76 7854.26 2209.8 7838.85 2216.42C7823.44 2223.05 7804.63 2226.37 7782.42 2226.37ZM7791.37 2173.67C7814.57 2173.67 7834.13 2169.11 7850.04 2160C7866.11 2150.88 7878.21 2139.12 7886.33 2124.7C7894.62 2110.28 7898.76 2095.12 7898.76 2079.21V2025.52C7896.27 2028.5 7890.8 2031.23 7882.35 2033.72C7874.07 2036.04 7864.46 2038.11 7853.52 2039.93C7842.75 2041.59 7832.22 2043.08 7821.95 2044.41C7811.84 2045.57 7803.64 2046.56 7797.34 2047.39C7782.09 2049.38 7767.84 2052.61 7754.58 2057.09C7741.49 2061.39 7730.89 2067.94 7722.77 2076.72C7714.81 2085.34 7710.83 2097.11 7710.83 2112.02C7710.83 2132.4 7718.37 2147.82 7733.45 2158.26C7748.7 2168.53 7768.01 2173.67 7791.37 2173.67ZM8064.5 2217.42V1835.6H8121.18V1895.26H8126.15C8134.1 1874.88 8146.95 1859.05 8164.68 1847.78C8182.41 1836.35 8203.7 1830.63 8228.56 1830.63C8253.75 1830.63 8274.72 1836.35 8291.45 1847.78C8308.36 1859.05 8321.53 1874.88 8330.98 1895.26H8334.95C8344.73 1875.54 8359.4 1859.88 8378.95 1848.28C8398.51 1836.51 8421.96 1830.63 8449.3 1830.63C8483.44 1830.63 8511.36 1841.32 8533.07 1862.7C8554.78 1883.91 8565.64 1916.97 8565.64 1961.88V2217.42H8506.97V1961.88C8506.97 1933.71 8499.27 1913.57 8483.85 1901.47C8468.44 1889.38 8450.3 1883.33 8429.41 1883.33C8402.57 1883.33 8381.77 1891.45 8367.02 1907.69C8352.27 1923.76 8344.9 1944.15 8344.9 1968.84V2217.42H8285.24V1955.91C8285.24 1934.2 8278.2 1916.72 8264.11 1903.46C8250.02 1890.04 8231.88 1883.33 8209.67 1883.33C8194.42 1883.33 8180.17 1887.39 8166.91 1895.51C8153.82 1903.63 8143.22 1914.9 8135.1 1929.32C8127.14 1943.57 8123.16 1960.06 8123.16 1978.78V2217.42H8064.5ZM8672.9 2217.42V1835.6H8731.56V2217.42H8672.9ZM8702.73 1771.96C8691.29 1771.96 8681.43 1768.07 8673.15 1760.28C8665.03 1752.49 8660.97 1743.13 8660.97 1732.19C8660.97 1721.25 8665.03 1711.89 8673.15 1704.1C8681.43 1696.31 8691.29 1692.42 8702.73 1692.42C8714.16 1692.42 8723.94 1696.31 8732.06 1704.1C8740.35 1711.89 8744.49 1721.25 8744.49 1732.19C8744.49 1743.13 8740.35 1752.49 8732.06 1760.28C8723.94 1768.07 8714.16 1771.96 8702.73 1771.96ZM8828.07 2217.42V2172.67L9044.84 1894.27V1890.29H8835.03V1835.6H9120.4V1882.33L8909.61 2158.75V2162.73H9127.36V2217.42H8828.07ZM9366.87 2225.37C9330.08 2225.37 9298.35 2217.25 9271.66 2201.01C9245.15 2184.61 9224.68 2161.74 9210.27 2132.4C9196.01 2102.91 9188.89 2068.6 9188.89 2029.49C9188.89 1990.38 9196.01 1955.91 9210.27 1926.08C9224.68 1896.09 9244.73 1872.72 9270.42 1855.98C9296.27 1839.08 9326.43 1830.63 9360.9 1830.63C9380.79 1830.63 9400.43 1833.94 9419.82 1840.57C9439.21 1847.2 9456.86 1857.97 9472.77 1872.89C9488.67 1887.64 9501.35 1907.19 9510.8 1931.55C9520.24 1955.91 9524.97 1985.91 9524.97 2021.54V2046.4H9230.65V1995.69H9465.31C9465.31 1974.14 9461 1954.92 9452.38 1938.02C9443.93 1921.11 9431.83 1907.77 9416.09 1897.99C9400.51 1888.22 9382.12 1883.33 9360.9 1883.33C9337.54 1883.33 9317.32 1889.13 9300.25 1900.73C9283.35 1912.16 9270.34 1927.08 9261.22 1945.47C9252.11 1963.87 9247.55 1983.59 9247.55 2004.64V2038.44C9247.55 2067.28 9252.52 2091.72 9262.47 2111.77C9272.58 2131.66 9286.58 2146.82 9304.48 2157.26C9322.37 2167.54 9343.17 2172.67 9366.87 2172.67C9382.28 2172.67 9396.2 2170.52 9408.63 2166.21C9421.23 2161.74 9432.08 2155.11 9441.2 2146.33C9450.31 2137.38 9457.35 2126.27 9462.32 2113.02L9519 2128.92C9513.03 2148.15 9503.01 2165.05 9488.92 2179.64C9474.84 2194.05 9457.44 2205.32 9436.72 2213.44C9416.01 2221.4 9392.72 2225.37 9366.87 2225.37Z" fill="black"/>
</svg>
