<svg width="11369" height="2913" viewBox="0 0 11369 2913" fill="none" xmlns="http://www.w3.org/2000/svg">
<rect x="0.658203" y="0.722168" width="11367.8" height="2911.41" fill="#D4DFDF"/>
<path d="M9798.6 2158.33L9235.6 2246.86L9235.6 2069.79L9798.6 2158.33Z" fill="#5A4D47"/>
<rect x="0.658203" y="2069.79" width="9234.94" height="177.073" fill="#5A4D47"/>
<rect x="0.658203" y="0.722168" width="1233.34" height="2911.41" fill="#38322F"/>
<path d="M2437.14 1305.35L2178.55 1753.24L1919.96 1305.35L2437.14 1305.35Z" fill="#072B1C"/>
<rect x="2178.55" y="1041.72" width="457.284" height="718.792" fill="#274F45"/>
<path d="M2503.62 1710.02L2296.67 1039.07L2710.57 1039.07L2503.62 1710.02Z" fill="#32643D"/>
<rect x="2331.62" y="1692.14" width="40.0527" height="384.403" fill="#122120"/>
<rect x="2548.8" y="1692.14" width="40.0527" height="384.403" fill="#122120"/>
<rect width="550.631" height="386.775" transform="matrix(-1 -2.58096e-08 -2.58096e-08 1 2741.92 681.35)" fill="#3B5034"/>
<rect width="196.246" height="48.5851" transform="matrix(-1 -2.58096e-08 -2.58096e-08 1 2564.72 632.765)" fill="#3B5034"/>
<circle cx="144.326" cy="144.326" r="144.326" transform="matrix(-1 -2.58096e-08 -2.58096e-08 1 2610.93 730.412)" fill="white"/>
<path d="M3101.43 874.738L2741.92 681.351L2741.92 1068.13L3101.43 874.738Z" fill="#FF0000"/>
<path d="M3101.43 874.738L2741.92 681.35L2741.92 985.682L3101.43 874.738Z" fill="#FFA928"/>
<circle cx="30.3845" cy="30.3845" r="30.3845" transform="matrix(-1 -2.58096e-08 -2.58096e-08 1 2534 844.354)" fill="black"/>
<path d="M3955.76 1710.93V1329.11H4014.43V1710.93H3955.76ZM3985.59 1265.47C3974.16 1265.47 3964.3 1261.58 3956.01 1253.79C3947.89 1246 3943.83 1236.64 3943.83 1225.7C3943.83 1214.76 3947.89 1205.4 3956.01 1197.61C3964.3 1189.82 3974.16 1185.93 3985.59 1185.93C3997.03 1185.93 4006.8 1189.82 4014.92 1197.61C4023.21 1205.4 4027.35 1214.76 4027.35 1225.7C4027.35 1236.64 4023.21 1246 4014.92 1253.79C4006.8 1261.58 3997.03 1265.47 3985.59 1265.47ZM4180.54 1481.24V1710.93H4121.88V1329.11H4178.55V1388.77H4183.52C4192.47 1369.38 4206.06 1353.8 4224.29 1342.03C4242.52 1330.1 4266.05 1324.14 4294.89 1324.14C4320.74 1324.14 4343.36 1329.44 4362.75 1340.05C4382.14 1350.49 4397.22 1366.39 4407.99 1387.77C4418.76 1408.98 4424.15 1435.83 4424.15 1468.31V1710.93H4365.48V1472.29C4365.48 1442.29 4357.69 1418.93 4342.12 1402.19C4326.54 1385.29 4305.16 1376.83 4277.98 1376.83C4259.26 1376.83 4242.52 1380.89 4227.77 1389.02C4213.19 1397.14 4201.67 1408.98 4193.22 1424.56C4184.77 1440.14 4180.54 1459.03 4180.54 1481.24ZM4801.8 1414.62L4749.1 1429.53C4745.79 1420.75 4740.9 1412.22 4734.44 1403.93C4728.14 1395.48 4719.52 1388.52 4708.59 1383.05C4697.65 1377.58 4683.64 1374.85 4666.58 1374.85C4643.21 1374.85 4623.74 1380.23 4608.16 1391C4592.75 1401.61 4585.04 1415.12 4585.04 1431.52C4585.04 1446.11 4590.34 1457.62 4600.95 1466.07C4611.56 1474.53 4628.13 1481.57 4650.67 1487.2L4707.34 1501.12C4741.48 1509.41 4766.92 1522.09 4783.66 1539.16C4800.39 1556.06 4808.76 1577.85 4808.76 1604.53C4808.76 1626.41 4802.47 1645.96 4789.87 1663.2C4777.44 1680.43 4760.04 1694.02 4737.67 1703.97C4715.3 1713.91 4689.28 1718.88 4659.62 1718.88C4620.67 1718.88 4588.44 1710.43 4562.92 1693.53C4537.4 1676.62 4521.24 1651.93 4514.45 1619.45L4570.13 1605.53C4575.43 1626.08 4585.46 1641.49 4600.2 1651.76C4615.12 1662.04 4634.59 1667.18 4658.62 1667.18C4685.96 1667.18 4707.67 1661.38 4723.75 1649.78C4739.99 1638.01 4748.11 1623.92 4748.11 1607.52C4748.11 1594.26 4743.47 1583.16 4734.19 1574.21C4724.91 1565.09 4710.66 1558.3 4691.43 1553.82L4627.8 1538.91C4592.83 1530.62 4567.14 1517.78 4550.74 1500.38C4534.5 1482.81 4526.38 1460.85 4526.38 1434.51C4526.38 1412.96 4532.43 1393.9 4544.52 1377.33C4556.79 1360.76 4573.44 1347.75 4594.49 1338.31C4615.7 1328.86 4639.73 1324.14 4666.58 1324.14C4704.36 1324.14 4734.02 1332.42 4755.57 1348.99C4777.28 1365.57 4792.69 1387.44 4801.8 1414.62ZM5063.12 1329.11V1378.82H4865.25V1329.11H5063.12ZM4922.92 1237.63H4981.59V1601.55C4981.59 1618.12 4983.99 1630.55 4988.8 1638.84C4993.77 1646.96 5000.07 1652.43 5007.69 1655.24C5015.48 1657.9 5023.68 1659.22 5032.3 1659.22C5038.76 1659.22 5044.06 1658.89 5048.21 1658.23C5052.35 1657.4 5055.66 1656.74 5058.15 1656.24L5070.08 1708.94C5066.11 1710.43 5060.55 1711.92 5053.43 1713.41C5046.3 1715.07 5037.27 1715.9 5026.33 1715.9C5009.76 1715.9 4993.52 1712.33 4977.61 1705.21C4961.87 1698.08 4948.78 1687.23 4938.34 1672.64C4928.06 1658.06 4922.92 1639.67 4922.92 1617.46V1237.63ZM5263.73 1719.87C5239.53 1719.87 5217.57 1715.32 5197.85 1706.2C5178.13 1696.92 5162.47 1683.58 5150.87 1666.18C5139.27 1648.62 5133.47 1627.4 5133.47 1602.55C5133.47 1580.67 5137.78 1562.94 5146.4 1549.35C5155.01 1535.59 5166.53 1524.82 5180.95 1517.03C5195.37 1509.24 5211.28 1503.44 5228.68 1499.63C5246.24 1495.66 5263.89 1492.51 5281.62 1490.19C5304.82 1487.2 5323.63 1484.97 5338.05 1483.48C5352.63 1481.82 5363.24 1479.08 5369.87 1475.27C5376.66 1471.46 5380.06 1464.83 5380.06 1455.39V1453.4C5380.06 1428.87 5373.35 1409.81 5359.93 1396.22C5346.67 1382.64 5326.53 1375.84 5299.52 1375.84C5271.51 1375.84 5249.56 1381.97 5233.65 1394.24C5217.74 1406.5 5206.55 1419.59 5200.09 1433.51L5144.41 1413.62C5154.35 1390.42 5167.61 1372.36 5184.18 1359.43C5200.92 1346.34 5219.15 1337.23 5238.87 1332.09C5258.75 1326.79 5278.31 1324.14 5297.53 1324.14C5309.8 1324.14 5323.88 1325.63 5339.79 1328.61C5355.87 1331.43 5371.36 1337.31 5386.28 1346.26C5401.36 1355.21 5413.87 1368.71 5423.81 1386.78C5433.75 1404.84 5438.73 1429.04 5438.73 1459.36V1710.93H5380.06V1659.22H5377.08C5373.1 1667.51 5366.47 1676.37 5357.19 1685.82C5347.91 1695.27 5335.57 1703.3 5320.15 1709.93C5304.74 1716.56 5285.93 1719.87 5263.73 1719.87ZM5272.67 1667.18C5295.88 1667.18 5315.43 1662.62 5331.34 1653.5C5347.41 1644.39 5359.51 1632.62 5367.63 1618.21C5375.92 1603.79 5380.06 1588.62 5380.06 1572.72V1519.02C5377.58 1522.01 5372.11 1524.74 5363.65 1527.23C5355.37 1529.55 5345.76 1531.62 5334.82 1533.44C5324.05 1535.1 5313.52 1536.59 5303.25 1537.91C5293.14 1539.07 5284.94 1540.07 5278.64 1540.9C5263.39 1542.89 5249.14 1546.12 5235.89 1550.59C5222.79 1554.9 5212.19 1561.45 5204.07 1570.23C5196.11 1578.85 5192.14 1590.61 5192.14 1605.53C5192.14 1625.91 5199.68 1641.32 5214.76 1651.76C5230 1662.04 5249.31 1667.18 5272.67 1667.18ZM5604.47 1201.83V1710.93H5545.8V1201.83H5604.47ZM5770.58 1201.83V1710.93H5711.91V1201.83H5770.58ZM5990.39 1719.87C5966.19 1719.87 5944.23 1715.32 5924.51 1706.2C5904.79 1696.92 5889.13 1683.58 5877.53 1666.18C5865.93 1648.62 5860.13 1627.4 5860.13 1602.55C5860.13 1580.67 5864.44 1562.94 5873.06 1549.35C5881.67 1535.59 5893.19 1524.82 5907.61 1517.03C5922.03 1509.24 5937.94 1503.44 5955.34 1499.63C5972.9 1495.66 5990.55 1492.51 6008.28 1490.19C6031.48 1487.2 6050.29 1484.97 6064.71 1483.48C6079.29 1481.82 6089.9 1479.08 6096.53 1475.27C6103.32 1471.46 6106.72 1464.83 6106.72 1455.39V1453.4C6106.72 1428.87 6100.01 1409.81 6086.59 1396.22C6073.33 1382.64 6053.19 1375.84 6026.18 1375.84C5998.17 1375.84 5976.22 1381.97 5960.31 1394.24C5944.4 1406.5 5933.21 1419.59 5926.75 1433.51L5871.07 1413.62C5881.01 1390.42 5894.27 1372.36 5910.84 1359.43C5927.58 1346.34 5945.81 1337.23 5965.53 1332.09C5985.41 1326.79 6004.97 1324.14 6024.19 1324.14C6036.46 1324.14 6050.54 1325.63 6066.45 1328.61C6082.53 1331.43 6098.02 1337.31 6112.94 1346.26C6128.02 1355.21 6140.53 1368.71 6150.47 1386.78C6160.41 1404.84 6165.39 1429.04 6165.39 1459.36V1710.93H6106.72V1659.22H6103.74C6099.76 1667.51 6093.13 1676.37 6083.85 1685.82C6074.57 1695.27 6062.23 1703.3 6046.81 1709.93C6031.4 1716.56 6012.59 1719.87 5990.39 1719.87ZM5999.33 1667.18C6022.54 1667.18 6042.09 1662.62 6058 1653.5C6074.07 1644.39 6086.17 1632.62 6094.29 1618.21C6102.58 1603.79 6106.72 1588.62 6106.72 1572.72V1519.02C6104.24 1522.01 6098.77 1524.74 6090.32 1527.23C6082.03 1529.55 6072.42 1531.62 6061.48 1533.44C6050.71 1535.1 6040.18 1536.59 6029.91 1537.91C6019.8 1539.07 6011.6 1540.07 6005.3 1540.9C5990.05 1542.89 5975.8 1546.12 5962.55 1550.59C5949.45 1554.9 5938.85 1561.45 5930.73 1570.23C5922.77 1578.85 5918.8 1590.61 5918.8 1605.53C5918.8 1625.91 5926.34 1641.32 5941.42 1651.76C5956.66 1662.04 5975.97 1667.18 5999.33 1667.18ZM6438.51 1329.11V1378.82H6240.64V1329.11H6438.51ZM6298.31 1237.63H6356.98V1601.55C6356.98 1618.12 6359.38 1630.55 6364.19 1638.84C6369.16 1646.96 6375.46 1652.43 6383.08 1655.24C6390.87 1657.9 6399.07 1659.22 6407.69 1659.22C6414.15 1659.22 6419.46 1658.89 6423.6 1658.23C6427.74 1657.4 6431.06 1656.74 6433.54 1656.24L6445.47 1708.94C6441.5 1710.43 6435.94 1711.92 6428.82 1713.41C6421.69 1715.07 6412.66 1715.9 6401.72 1715.9C6385.15 1715.9 6368.91 1712.33 6353 1705.21C6337.26 1698.08 6324.17 1687.23 6313.73 1672.64C6303.45 1658.06 6298.31 1639.67 6298.31 1617.46V1237.63ZM6526.76 1710.93V1329.11H6585.42V1710.93H6526.76ZM6556.59 1265.47C6545.15 1265.47 6535.29 1261.58 6527.01 1253.79C6518.89 1246 6514.83 1236.64 6514.83 1225.7C6514.83 1214.76 6518.89 1205.4 6527.01 1197.61C6535.29 1189.82 6545.15 1185.93 6556.59 1185.93C6568.02 1185.93 6577.8 1189.82 6585.92 1197.61C6594.21 1205.4 6598.35 1214.76 6598.35 1225.7C6598.35 1236.64 6594.21 1246 6585.92 1253.79C6577.8 1261.58 6568.02 1265.47 6556.59 1265.47ZM6847.99 1718.88C6813.52 1718.88 6783.27 1710.68 6757.25 1694.27C6731.4 1677.86 6711.18 1654.91 6696.6 1625.41C6682.18 1595.92 6674.97 1561.45 6674.97 1522.01C6674.97 1482.23 6682.18 1447.51 6696.6 1417.85C6711.18 1388.19 6731.4 1365.15 6757.25 1348.75C6783.27 1332.34 6813.52 1324.14 6847.99 1324.14C6882.46 1324.14 6912.62 1332.34 6938.47 1348.75C6964.49 1365.15 6984.7 1388.19 6999.12 1417.85C7013.71 1447.51 7021 1482.23 7021 1522.01C7021 1561.45 7013.71 1595.92 6999.12 1625.41C6984.7 1654.91 6964.49 1677.86 6938.47 1694.27C6912.62 1710.68 6882.46 1718.88 6847.99 1718.88ZM6847.99 1666.18C6874.17 1666.18 6895.71 1659.47 6912.62 1646.05C6929.52 1632.62 6942.03 1614.97 6950.15 1593.1C6958.27 1571.22 6962.33 1547.53 6962.33 1522.01C6962.33 1496.48 6958.27 1472.7 6950.15 1450.66C6942.03 1428.62 6929.52 1410.81 6912.62 1397.22C6895.71 1383.63 6874.17 1376.83 6847.99 1376.83C6821.8 1376.83 6800.26 1383.63 6783.35 1397.22C6766.45 1410.81 6753.94 1428.62 6745.82 1450.66C6737.7 1472.7 6733.64 1496.48 6733.64 1522.01C6733.64 1547.53 6737.7 1571.22 6745.82 1593.1C6753.94 1614.97 6766.45 1632.62 6783.35 1646.05C6800.26 1659.47 6821.8 1666.18 6847.99 1666.18ZM7169.21 1481.24V1710.93H7110.55V1329.11H7167.22V1388.77H7172.2C7181.14 1369.38 7194.73 1353.8 7212.96 1342.03C7231.19 1330.1 7254.72 1324.14 7283.56 1324.14C7309.41 1324.14 7332.03 1329.44 7351.42 1340.05C7370.81 1350.49 7385.89 1366.39 7396.66 1387.77C7407.43 1408.98 7412.82 1435.83 7412.82 1468.31V1710.93H7354.16V1472.29C7354.16 1442.29 7346.37 1418.93 7330.79 1402.19C7315.21 1385.29 7293.83 1376.83 7266.66 1376.83C7247.93 1376.83 7231.19 1380.89 7216.44 1389.02C7201.86 1397.14 7190.34 1408.98 7181.89 1424.56C7173.44 1440.14 7169.21 1459.03 7169.21 1481.24Z" fill="black"/>
</svg>
