<svg width="11369" height="2913" viewBox="0 0 11369 2913" fill="none" xmlns="http://www.w3.org/2000/svg">
<rect x="0.894531" y="0.167969" width="11367.8" height="2911.41" fill="#E9D4A0"/>
<path d="M9798.84 2157.77L9235.84 2246.31L9235.84 2069.24L9798.84 2157.77Z" fill="#5A4D47"/>
<rect x="0.894531" y="2069.24" width="9234.94" height="177.073" fill="#5A4D47"/>
<rect x="0.894531" y="0.167969" width="1233.34" height="2911.41" fill="#38322F"/>
<path d="M4699.28 1710.37V1328.55H4757.94V1710.37H4699.28ZM4729.11 1264.92C4717.67 1264.92 4707.81 1261.02 4699.53 1253.23C4691.41 1245.44 4687.35 1236.08 4687.35 1225.14C4687.35 1214.21 4691.41 1204.84 4699.53 1197.05C4707.81 1189.27 4717.67 1185.37 4729.11 1185.37C4740.54 1185.37 4750.32 1189.27 4758.44 1197.05C4766.73 1204.84 4770.87 1214.21 4770.87 1225.14C4770.87 1236.08 4766.73 1245.44 4758.44 1253.23C4750.32 1261.02 4740.54 1264.92 4729.11 1264.92ZM5135.84 1414.06L5083.15 1428.98C5079.83 1420.2 5074.94 1411.66 5068.48 1403.38C5062.18 1394.92 5053.57 1387.96 5042.63 1382.49C5031.69 1377.03 5017.69 1374.29 5000.62 1374.29C4977.25 1374.29 4957.78 1379.68 4942.2 1390.45C4926.79 1401.06 4919.08 1414.56 4919.08 1430.97C4919.08 1445.55 4924.39 1457.07 4934.99 1465.52C4945.6 1473.97 4962.17 1481.02 4984.71 1486.65L5041.38 1500.57C5075.52 1508.86 5100.96 1521.53 5117.7 1538.6C5134.44 1555.51 5142.81 1577.3 5142.81 1603.98C5142.81 1625.85 5136.51 1645.41 5123.91 1662.64C5111.48 1679.88 5094.08 1693.47 5071.71 1703.41C5049.34 1713.35 5023.32 1718.33 4993.66 1718.33C4954.71 1718.33 4922.48 1709.87 4896.96 1692.97C4871.44 1676.07 4855.28 1651.37 4848.49 1618.89L4904.17 1604.97C4909.47 1625.52 4919.5 1640.93 4934.25 1651.21C4949.16 1661.48 4968.63 1666.62 4992.66 1666.62C5020.01 1666.62 5041.72 1660.82 5057.79 1649.22C5074.03 1637.45 5082.15 1623.37 5082.15 1606.96C5082.15 1593.7 5077.51 1582.6 5068.23 1573.65C5058.95 1564.54 5044.7 1557.74 5025.48 1553.27L4961.84 1538.35C4926.87 1530.07 4901.19 1517.22 4884.78 1499.82C4868.54 1482.26 4860.42 1460.3 4860.42 1433.95C4860.42 1412.41 4866.47 1393.35 4878.57 1376.78C4890.83 1360.21 4907.48 1347.2 4928.53 1337.75C4949.74 1328.3 4973.77 1323.58 5000.62 1323.58C5038.4 1323.58 5068.07 1331.87 5089.61 1348.44C5111.32 1365.01 5126.73 1386.89 5135.84 1414.06ZM5501.57 1414.06L5448.87 1428.98C5445.55 1420.2 5440.67 1411.66 5434.2 1403.38C5427.91 1394.92 5419.29 1387.96 5408.35 1382.49C5397.41 1377.03 5383.41 1374.29 5366.34 1374.29C5342.97 1374.29 5323.5 1379.68 5307.92 1390.45C5292.51 1401.06 5284.81 1414.56 5284.81 1430.97C5284.81 1445.55 5290.11 1457.07 5300.72 1465.52C5311.32 1473.97 5327.89 1481.02 5350.43 1486.65L5407.11 1500.57C5441.25 1508.86 5466.68 1521.53 5483.42 1538.6C5500.16 1555.51 5508.53 1577.3 5508.53 1603.98C5508.53 1625.85 5502.23 1645.41 5489.64 1662.64C5477.21 1679.88 5459.81 1693.47 5437.43 1703.41C5415.06 1713.35 5389.04 1718.33 5359.38 1718.33C5320.44 1718.33 5288.2 1709.87 5262.68 1692.97C5237.16 1676.07 5221 1651.37 5214.21 1618.89L5269.89 1604.97C5275.19 1625.52 5285.22 1640.93 5299.97 1651.21C5314.88 1661.48 5334.36 1666.62 5358.39 1666.62C5385.73 1666.62 5407.44 1660.82 5423.51 1649.22C5439.75 1637.45 5447.87 1623.37 5447.87 1606.96C5447.87 1593.7 5443.23 1582.6 5433.95 1573.65C5424.67 1564.54 5410.42 1557.74 5391.2 1553.27L5327.56 1538.35C5292.6 1530.07 5266.91 1517.22 5250.5 1499.82C5234.26 1482.26 5226.14 1460.3 5226.14 1433.95C5226.14 1412.41 5232.19 1393.35 5244.29 1376.78C5256.55 1360.21 5273.21 1347.2 5294.25 1337.75C5315.46 1328.3 5339.49 1323.58 5366.34 1323.58C5404.12 1323.58 5433.79 1331.87 5455.33 1348.44C5477.04 1365.01 5492.45 1386.89 5501.57 1414.06ZM5837.46 1554.26V1328.55H5896.13V1710.37H5837.46V1645.74H5833.48C5824.53 1665.13 5810.61 1681.62 5791.72 1695.21C5772.83 1708.63 5748.97 1715.34 5720.13 1715.34C5696.27 1715.34 5675.06 1710.12 5656.49 1699.68C5637.93 1689.08 5623.35 1673.17 5612.74 1651.95C5602.14 1630.58 5596.84 1603.65 5596.84 1571.17V1328.55H5655.5V1567.19C5655.5 1595.03 5663.29 1617.24 5678.87 1633.81C5694.61 1650.38 5714.66 1658.67 5739.02 1658.67C5753.61 1658.67 5768.44 1654.94 5783.52 1647.48C5798.77 1640.02 5811.53 1628.59 5821.8 1613.18C5832.24 1597.76 5837.46 1578.13 5837.46 1554.26ZM6163.66 1718.33C6126.87 1718.33 6095.13 1710.21 6068.45 1693.96C6041.94 1677.56 6021.47 1654.69 6007.05 1625.36C5992.8 1595.86 5985.68 1561.55 5985.68 1522.44C5985.68 1483.34 5992.8 1448.87 6007.05 1419.04C6021.47 1389.04 6041.52 1365.67 6067.21 1348.94C6093.06 1332.03 6123.22 1323.58 6157.69 1323.58C6177.58 1323.58 6197.22 1326.9 6216.61 1333.52C6236 1340.15 6253.65 1350.93 6269.55 1365.84C6285.46 1380.59 6298.14 1400.14 6307.59 1424.5C6317.03 1448.87 6321.76 1478.86 6321.76 1514.49V1539.35H6027.44V1488.64H6262.1C6262.1 1467.09 6257.79 1447.87 6249.17 1430.97C6240.72 1414.06 6228.62 1400.72 6212.88 1390.95C6197.3 1381.17 6178.91 1376.28 6157.69 1376.28C6134.33 1376.28 6114.11 1382.08 6097.04 1393.68C6080.14 1405.12 6067.13 1420.03 6058.01 1438.43C6048.9 1456.82 6044.34 1476.54 6044.34 1497.59V1531.39C6044.34 1560.23 6049.31 1584.67 6059.26 1604.72C6069.36 1624.61 6083.37 1639.77 6101.27 1650.21C6119.16 1660.49 6139.96 1665.63 6163.66 1665.63C6179.07 1665.63 6192.99 1663.47 6205.42 1659.16C6218.02 1654.69 6228.87 1648.06 6237.98 1639.28C6247.1 1630.33 6254.14 1619.23 6259.11 1605.97L6315.79 1621.88C6309.82 1641.1 6299.8 1658 6285.71 1672.59C6271.63 1687 6254.23 1698.27 6233.51 1706.39C6212.8 1714.35 6189.51 1718.33 6163.66 1718.33ZM6681.45 1414.06L6628.75 1428.98C6625.44 1420.2 6620.55 1411.66 6614.09 1403.38C6607.79 1394.92 6599.17 1387.96 6588.23 1382.49C6577.3 1377.03 6563.29 1374.29 6546.22 1374.29C6522.86 1374.29 6503.38 1379.68 6487.81 1390.45C6472.4 1401.06 6464.69 1414.56 6464.69 1430.97C6464.69 1445.55 6469.99 1457.07 6480.6 1465.52C6491.2 1473.97 6507.78 1481.02 6530.31 1486.65L6586.99 1500.57C6621.13 1508.86 6646.57 1521.53 6663.3 1538.6C6680.04 1555.51 6688.41 1577.3 6688.41 1603.98C6688.41 1625.85 6682.11 1645.41 6669.52 1662.64C6657.09 1679.88 6639.69 1693.47 6617.32 1703.41C6594.94 1713.35 6568.93 1718.33 6539.26 1718.33C6500.32 1718.33 6468.09 1709.87 6442.57 1692.97C6417.04 1676.07 6400.89 1651.37 6394.09 1618.89L6449.77 1604.97C6455.08 1625.52 6465.1 1640.93 6479.85 1651.21C6494.77 1661.48 6514.24 1666.62 6538.27 1666.62C6565.61 1666.62 6587.32 1660.82 6603.4 1649.22C6619.64 1637.45 6627.76 1623.37 6627.76 1606.96C6627.76 1593.7 6623.12 1582.6 6613.84 1573.65C6604.56 1564.54 6590.3 1557.74 6571.08 1553.27L6507.44 1538.35C6472.48 1530.07 6446.79 1517.22 6430.39 1499.82C6414.14 1482.26 6406.02 1460.3 6406.02 1433.95C6406.02 1412.41 6412.07 1393.35 6424.17 1376.78C6436.43 1360.21 6453.09 1347.2 6474.14 1337.75C6495.35 1328.3 6519.38 1323.58 6546.22 1323.58C6584.01 1323.58 6613.67 1331.87 6635.21 1348.44C6656.92 1365.01 6672.34 1386.89 6681.45 1414.06Z" fill="black"/>
<path d="M9047.23 1456.76L9282.28 1863.89L9517.34 1456.76L9047.23 1456.76Z" fill="#A31717"/>
<rect width="415.67" height="653.379" transform="matrix(-1 0 0 1 9282.28 1217.12)" fill="#B55D38"/>
<path d="M8986.8 1824.6L9174.91 1214.71L8798.69 1214.71L8986.8 1824.6Z" fill="#D5863D"/>
<rect width="36.4078" height="349.421" transform="matrix(-1 0 0 1 9143.14 1808.35)" fill="#122120"/>
<rect width="36.4078" height="349.421" transform="matrix(-1 0 0 1 8945.73 1808.35)" fill="#122120"/>
<rect x="8625.21" y="943.361" width="588.662" height="413.489" transform="rotate(-15 8625.21 943.361)" fill="#9A7D71"/>
<rect x="8794.74" y="844.162" width="209.8" height="51.9407" transform="rotate(-15 8794.74 844.162)" fill="#9A7D71"/>
<circle cx="8963.02" cy="1066.88" r="154.295" transform="rotate(-15 8963.02 1066.88)" fill="white"/>
<path d="M8307.47 1242.54L8625.21 943.361L8732.22 1342.76L8307.47 1242.54Z" fill="#FF0000"/>
<path d="M8307.47 1242.54L8625.2 943.361L8709.41 1257.63L8307.47 1242.54Z" fill="#FFA928"/>
<circle cx="8901.2" cy="1055.44" r="32.4831" transform="rotate(-15 8901.2 1055.44)" fill="black"/>
<path d="M8942.34 657.641V656.363C8942.48 642.797 8943.9 632.002 8946.6 623.976C8949.3 615.951 8953.14 609.452 8958.11 604.481C8963.08 599.509 8969.05 594.928 8976.01 590.738C8980.2 588.181 8983.96 585.163 8987.3 581.682C8990.64 578.131 8993.26 574.047 8995.18 569.431C8997.17 564.815 8998.17 559.701 8998.17 554.09C8998.17 547.13 8996.53 541.093 8993.26 535.979C8990 530.866 8985.63 526.924 8980.16 524.154C8974.69 521.384 8968.62 519.999 8961.94 519.999C8956.12 519.999 8950.51 521.207 8945.11 523.621C8939.71 526.036 8935.2 529.836 8931.58 535.021C8927.96 540.205 8925.86 546.988 8925.3 555.369H8898.45C8899.02 543.295 8902.14 532.961 8907.82 524.367C8913.58 515.773 8921.14 509.204 8930.52 504.658C8939.96 500.113 8950.44 497.84 8961.94 497.84C8974.44 497.84 8985.31 500.326 8994.54 505.297C9003.85 510.269 9011.02 517.087 9016.06 525.752C9021.18 534.417 9023.73 544.289 9023.73 555.369C9023.73 563.181 9022.53 570.248 9020.11 576.569C9017.77 582.89 9014.36 588.536 9009.88 593.508C9005.48 598.479 9000.15 602.883 8993.9 606.718C8987.65 610.624 8982.65 614.744 8978.88 619.076C8975.12 623.337 8972.38 628.415 8970.68 634.31C8968.97 640.205 8968.05 647.556 8967.91 656.363V657.641H8942.34ZM8955.98 720.709C8950.72 720.709 8946.21 718.827 8942.45 715.063C8938.68 711.299 8936.8 706.789 8936.8 701.533C8936.8 696.278 8938.68 691.768 8942.45 688.003C8946.21 684.239 8950.72 682.357 8955.98 682.357C8961.23 682.357 8965.74 684.239 8969.51 688.003C8973.27 691.768 8975.15 696.278 8975.15 701.533C8975.15 705.013 8974.27 708.209 8972.49 711.121C8970.79 714.033 8968.48 716.377 8965.57 718.153C8962.72 719.857 8959.53 720.709 8955.98 720.709Z" fill="black"/>
<path d="M9076.67 678.013L9077.31 676.906C9084.22 665.229 9090.84 656.59 9097.19 650.989C9103.54 645.389 9110.11 641.678 9116.91 639.858C9123.7 638.039 9131.15 637.054 9139.28 636.906C9144.18 636.787 9148.95 636.055 9153.58 634.71C9158.25 633.303 9162.57 631.081 9166.54 628.041C9170.57 625.038 9173.99 621.106 9176.79 616.247C9180.27 610.22 9181.87 604.175 9181.6 598.113C9181.33 592.051 9179.52 586.453 9176.17 581.32C9172.82 576.187 9168.25 571.951 9162.47 568.613C9157.42 565.701 9151.96 563.941 9146.08 563.334C9140.2 562.726 9134.39 563.762 9128.66 566.441C9122.93 569.12 9117.73 573.946 9113.04 580.92L9089.79 567.497C9096.32 557.324 9104.2 549.937 9113.41 545.336C9122.69 540.77 9132.53 538.863 9142.92 539.614C9153.37 540.4 9163.58 543.67 9173.55 549.423C9184.37 555.673 9192.54 563.259 9198.05 572.181C9203.62 581.138 9206.42 590.629 9206.46 600.655C9206.56 610.715 9203.83 620.543 9198.29 630.139C9194.39 636.904 9189.81 642.421 9184.56 646.687C9179.37 650.99 9173.59 654.175 9167.23 656.243C9160.93 658.347 9154.12 659.497 9146.79 659.694C9139.42 659.952 9133.02 661.015 9127.6 662.885C9122.21 664.694 9117.3 667.724 9112.88 671.977C9108.45 676.23 9103.98 682.134 9099.45 689.69L9098.81 690.797L9076.67 678.013ZM9056.95 739.45C9052.39 736.822 9049.43 732.937 9048.05 727.795C9046.67 722.653 9047.3 717.807 9049.93 713.255C9052.55 708.704 9056.44 705.739 9061.58 704.361C9066.72 702.983 9071.57 703.608 9076.12 706.236C9080.67 708.864 9083.64 712.749 9085.02 717.891C9086.39 723.033 9085.77 727.88 9083.14 732.431C9081.4 735.445 9079.03 737.769 9076.04 739.403C9073.11 741.073 9069.94 741.948 9066.53 742.03C9063.21 742.086 9060.02 741.226 9056.95 739.45Z" fill="black"/>
<path d="M8810.8 698.689L8810.17 697.582C8803.51 685.763 8799.34 675.704 8797.66 667.404C8795.99 659.104 8796.06 651.559 8797.88 644.768C8799.7 637.976 8802.57 631.026 8806.51 623.917C8808.86 619.608 8810.61 615.111 8811.76 610.429C8812.87 605.684 8813.11 600.833 8812.46 595.877C8811.88 590.884 8810.18 585.959 8807.37 581.1C8803.89 575.072 8799.46 570.66 8794.07 567.865C8788.69 565.07 8782.93 563.841 8776.81 564.176C8770.69 564.512 8764.74 566.349 8758.96 569.687C8753.92 572.599 8749.66 576.45 8746.19 581.24C8742.73 586.03 8740.72 591.576 8740.18 597.877C8739.63 604.178 8741.21 611.099 8744.91 618.641L8721.66 632.065C8716.11 621.324 8713.65 610.812 8714.27 600.529C8714.96 590.21 8718.23 580.739 8724.07 572.115C8729.98 563.455 8737.92 556.249 8747.88 550.496C8758.71 544.246 8769.36 540.966 8779.84 540.655C8790.38 540.309 8800.01 542.627 8808.7 547.609C8817.47 552.556 8824.62 559.827 8830.16 569.423C8834.06 576.188 8836.55 582.912 8837.62 589.594C8838.75 596.24 8838.62 602.834 8837.23 609.377C8835.9 615.884 8833.49 622.361 8830 628.807C8826.54 635.315 8824.26 641.386 8823.17 647.02C8822.04 652.593 8822.21 658.358 8823.68 664.315C8825.15 670.273 8828.03 677.1 8832.31 684.798L8832.95 685.905L8810.8 698.689ZM8854.15 746.49C8849.6 749.118 8844.75 749.743 8839.61 748.365C8834.47 746.987 8830.58 744.023 8827.95 739.471C8825.33 734.919 8824.7 730.073 8826.08 724.931C8827.46 719.789 8830.42 715.904 8834.97 713.276C8839.52 710.648 8844.37 710.023 8849.51 711.401C8854.65 712.779 8858.54 715.743 8861.17 720.295C8862.91 723.309 8863.74 726.52 8863.65 729.93C8863.63 733.304 8862.81 736.488 8861.17 739.482C8859.57 742.378 8857.22 744.714 8854.15 746.49Z" fill="black"/>
</svg>
