<svg width="11369" height="2913" viewBox="0 0 11369 2913" fill="none" xmlns="http://www.w3.org/2000/svg">
<rect x="0.894531" y="0.574219" width="11367.8" height="2911.41" fill="#031542"/>
<path d="M9798.84 2158.18L9235.84 2246.72L9235.84 2069.64L9798.84 2158.18Z" fill="#5A4D47"/>
<rect x="0.894531" y="2069.64" width="9234.94" height="177.073" fill="#5A4D47"/>
<rect x="0.894531" y="0.574219" width="1233.34" height="2911.41" fill="#38322F"/>
<path d="M8433.82 1099.53V1149.24H8235.96V1099.53H8433.82ZM8293.63 1008.05H8352.29V1371.97C8352.29 1388.54 8354.69 1400.97 8359.5 1409.26C8364.47 1417.38 8370.77 1422.85 8378.39 1425.66C8386.18 1428.32 8394.38 1429.64 8403 1429.64C8409.46 1429.64 8414.77 1429.31 8418.91 1428.65C8423.05 1427.82 8426.37 1427.16 8428.85 1426.66L8440.78 1479.36C8436.81 1480.85 8431.26 1482.34 8424.13 1483.83C8417 1485.49 8407.97 1486.32 8397.03 1486.32C8380.46 1486.32 8364.22 1482.75 8348.31 1475.63C8332.57 1468.5 8319.48 1457.65 8309.04 1443.06C8298.76 1428.48 8293.63 1410.09 8293.63 1387.88V1008.05ZM8588.94 1251.66V1481.35H8530.27V972.255H8588.94V1159.19H8593.91C8602.86 1139.47 8616.28 1123.81 8634.18 1112.21C8652.24 1100.44 8676.27 1094.56 8706.27 1094.56C8732.29 1094.56 8755.07 1099.78 8774.63 1110.22C8794.18 1120.49 8809.35 1136.32 8820.12 1157.7C8831.05 1178.91 8836.52 1205.92 8836.52 1238.73V1481.35H8777.86V1242.71C8777.86 1212.38 8769.99 1188.93 8754.24 1172.36C8738.67 1155.62 8717.04 1147.25 8689.36 1147.25C8670.14 1147.25 8652.91 1151.31 8637.66 1159.44C8622.58 1167.56 8610.65 1179.4 8601.86 1194.98C8593.25 1210.56 8588.94 1229.45 8588.94 1251.66ZM9056.21 1490.29C9032.01 1490.29 9010.05 1485.74 8990.33 1476.62C8970.61 1467.34 8954.95 1454 8943.35 1436.6C8931.75 1419.04 8925.95 1397.82 8925.95 1372.97C8925.95 1351.09 8930.26 1333.36 8938.88 1319.77C8947.49 1306.01 8959.01 1295.24 8973.43 1287.45C8987.85 1279.66 9003.76 1273.86 9021.16 1270.05C9038.72 1266.08 9056.37 1262.93 9074.1 1260.61C9097.3 1257.62 9116.11 1255.39 9130.53 1253.9C9145.11 1252.24 9155.72 1249.5 9162.35 1245.69C9169.14 1241.88 9172.54 1235.25 9172.54 1225.81V1223.82C9172.54 1199.29 9165.83 1180.23 9152.41 1166.64C9139.15 1153.05 9119.01 1146.26 9092 1146.26C9063.99 1146.26 9042.04 1152.39 9026.13 1164.66C9010.22 1176.92 8999.03 1190.01 8992.57 1203.93L8936.89 1184.04C8946.83 1160.84 8960.09 1142.78 8976.66 1129.85C8993.4 1116.76 9011.63 1107.65 9031.35 1102.51C9051.23 1097.21 9070.79 1094.56 9090.01 1094.56C9102.28 1094.56 9116.36 1096.05 9132.27 1099.03C9148.35 1101.85 9163.84 1107.73 9178.76 1116.68C9193.84 1125.63 9206.35 1139.13 9216.29 1157.2C9226.23 1175.26 9231.21 1199.46 9231.21 1229.78V1481.35H9172.54V1429.64H9169.56C9165.58 1437.93 9158.95 1446.79 9149.67 1456.24C9140.39 1465.69 9128.04 1473.72 9112.63 1480.35C9097.22 1486.98 9078.41 1490.29 9056.21 1490.29ZM9065.15 1437.6C9088.36 1437.6 9107.91 1433.04 9123.82 1423.92C9139.89 1414.81 9151.99 1403.04 9160.11 1388.63C9168.4 1374.21 9172.54 1359.04 9172.54 1343.14V1289.44C9170.05 1292.43 9164.59 1295.16 9156.13 1297.65C9147.85 1299.97 9138.24 1302.04 9127.3 1303.86C9116.53 1305.52 9106 1307.01 9095.73 1308.33C9085.62 1309.49 9077.42 1310.49 9071.12 1311.32C9055.87 1313.31 9041.62 1316.54 9028.36 1321.01C9015.27 1325.32 9004.67 1331.87 8996.55 1340.65C8988.59 1349.27 8984.61 1361.03 8984.61 1375.95C8984.61 1396.33 8992.15 1411.74 9007.24 1422.18C9022.48 1432.46 9041.79 1437.6 9065.15 1437.6ZM9396.95 1251.66V1481.35H9338.28V1099.53H9394.96V1159.19H9399.93C9408.88 1139.8 9422.47 1124.22 9440.7 1112.45C9458.93 1100.52 9482.46 1094.56 9511.29 1094.56C9537.14 1094.56 9559.77 1099.86 9579.15 1110.47C9598.54 1120.91 9613.62 1136.81 9624.4 1158.19C9635.17 1179.4 9640.55 1206.25 9640.55 1238.73V1481.35H9581.89V1242.71C9581.89 1212.71 9574.1 1189.35 9558.52 1172.61C9542.94 1155.71 9521.57 1147.25 9494.39 1147.25C9475.66 1147.25 9458.93 1151.31 9444.18 1159.44C9429.59 1167.56 9418.08 1179.4 9409.62 1194.98C9401.17 1210.56 9396.95 1229.45 9396.95 1251.66ZM9802.44 1342.14L9801.45 1269.56H9813.38L9980.42 1099.53H10053L9875.03 1279.5H9870.05L9802.44 1342.14ZM9747.75 1481.35V972.255H9806.42V1481.35H9747.75ZM9990.37 1481.35L9841.22 1292.43L9882.98 1251.66L10064.9 1481.35H9990.37ZM10399 1185.04L10346.3 1199.95C10343 1191.17 10338.1 1182.64 10331.6 1174.35C10325.3 1165.9 10316.7 1158.94 10305.8 1153.47C10294.8 1148 10280.8 1145.27 10263.7 1145.27C10240.4 1145.27 10220.9 1150.65 10205.3 1161.42C10189.9 1172.03 10182.2 1185.54 10182.2 1201.94C10182.2 1216.53 10187.5 1228.04 10198.1 1236.49C10208.7 1244.95 10225.3 1251.99 10247.8 1257.62L10304.5 1271.54C10338.6 1279.83 10364.1 1292.51 10380.8 1309.58C10397.6 1326.48 10405.9 1348.27 10405.9 1374.95C10405.9 1396.83 10399.6 1416.38 10387 1433.62C10374.6 1450.85 10357.2 1464.44 10334.8 1474.39C10312.5 1484.33 10286.4 1489.3 10256.8 1489.3C10217.8 1489.3 10185.6 1480.85 10160.1 1463.95C10134.6 1447.04 10118.4 1422.35 10111.6 1389.87L10167.3 1375.95C10172.6 1396.5 10182.6 1411.91 10197.4 1422.18C10212.3 1432.46 10231.8 1437.6 10255.8 1437.6C10283.1 1437.6 10304.8 1431.8 10320.9 1420.2C10337.2 1408.43 10345.3 1394.34 10345.3 1377.94C10345.3 1364.68 10340.6 1353.58 10331.4 1344.63C10322.1 1335.51 10307.8 1328.72 10288.6 1324.24L10225 1309.33C10190 1301.04 10164.3 1288.2 10147.9 1270.8C10131.7 1253.23 10123.5 1231.27 10123.5 1204.93C10123.5 1183.38 10129.6 1164.32 10141.7 1147.75C10154 1131.18 10170.6 1118.17 10191.7 1108.72C10212.9 1099.28 10236.9 1094.56 10263.7 1094.56C10301.5 1094.56 10331.2 1102.84 10352.7 1119.41C10374.4 1135.99 10389.9 1157.86 10399 1185.04ZM10571.8 972.255L10566.8 1338.16H10509.2L10504.2 972.255H10571.8ZM10538 1485.32C10525.7 1485.32 10515.2 1480.93 10506.4 1472.15C10497.6 1463.37 10493.2 1452.84 10493.2 1440.58C10493.2 1428.32 10497.6 1417.79 10506.4 1409.01C10515.2 1400.23 10525.7 1395.83 10538 1395.83C10550.3 1395.83 10560.8 1400.23 10569.6 1409.01C10578.3 1417.79 10582.7 1428.32 10582.7 1440.58C10582.7 1448.7 10580.7 1456.16 10576.5 1462.95C10572.5 1469.75 10567.2 1475.21 10560.4 1479.36C10553.7 1483.33 10546.3 1485.32 10538 1485.32Z" fill="white"/>
<path d="M6085.77 1360.12L5850.72 1767.25L5615.66 1360.12L6085.77 1360.12Z" fill="#38717D"/>
<rect x="5850.72" y="1120.48" width="415.67" height="653.379" fill="#378AA4"/>
<path d="M6146.2 1727.96L5958.09 1118.07L6334.32 1118.07L6146.2 1727.96Z" fill="#83A7BC"/>
<rect x="5989.86" y="1711.71" width="36.4078" height="349.421" fill="#122120"/>
<rect x="6187.27" y="1711.71" width="36.4078" height="349.421" fill="#122120"/>
<rect width="500.522" height="351.577" transform="matrix(-0.866025 -0.5 -0.5 0.866025 6429.51 1028.29)" fill="#188275"/>
<rect width="178.387" height="44.1637" transform="matrix(-0.866025 -0.5 -0.5 0.866025 6312.1 909.508)" fill="#188275"/>
<path d="M6624.62 1343.92L6429.51 1028.29L6253.72 1332.76L6624.62 1343.92Z" fill="#FF0000"/>
<path d="M6624.63 1343.92L6429.51 1028.29L6291.19 1267.86L6624.63 1343.92Z" fill="#FFA928"/>
<rect width="18" height="150" transform="matrix(-0.5 0.866025 0.866025 0.5 6093.78 1102.38)" fill="#122120"/>
<path d="M5555.23 1360.12L5320.18 1767.25L5085.12 1360.12L5555.23 1360.12Z" fill="#2C053F"/>
<rect x="5320.18" y="1120.48" width="415.67" height="653.379" fill="#461D4D"/>
<path d="M5615.66 1727.96L5427.55 1118.07L5803.77 1118.07L5615.66 1727.96Z" fill="#584CA0"/>
<rect x="5459.32" y="1711.71" width="36.4078" height="349.421" fill="#122120"/>
<rect x="5656.73" y="1711.71" width="36.4078" height="349.421" fill="#122120"/>
<rect width="500.522" height="351.577" transform="matrix(-0.965926 0.258819 0.258819 0.965926 5719.93 788.193)" fill="#5A288B"/>
<rect width="178.387" height="44.1637" transform="matrix(-0.965926 0.258819 0.258819 0.965926 5552.92 787.223)" fill="#5A288B"/>
<circle cx="131.192" cy="131.192" r="131.192" transform="matrix(-0.965926 0.258819 0.258819 0.965926 5616.46 862.088)" fill="white"/>
<path d="M6081.09 873.414L5719.93 788.195L5810.93 1127.79L6081.09 873.414Z" fill="#FF0000"/>
<path d="M6081.09 873.413L5719.93 788.194L5791.53 1055.4L6081.09 873.413Z" fill="#FFA928"/>
<circle cx="27.6194" cy="27.6194" r="27.6194" transform="matrix(-0.965926 0.258819 0.258819 0.965926 5463.08 1000.21)" fill="black"/>
<rect width="500.522" height="163.466" transform="matrix(-0.965926 0.258819 0.258819 0.965926 5723.99 803.346)" fill="#5A288B"/>
<rect width="500.522" height="154.456" transform="matrix(-0.965926 0.258819 0.258819 0.965926 5770.95 978.6)" fill="#5A288B"/>
<path d="M4389.52 1299.69L4130.93 1747.58L3872.34 1299.69L4389.52 1299.69Z" fill="#072B1C"/>
<rect x="4130.93" y="1036.06" width="457.284" height="718.792" fill="#274F45"/>
<path d="M4456 1704.36L4249.05 1033.41L4662.94 1033.41L4456 1704.36Z" fill="#32643D"/>
<rect x="4284" y="1686.48" width="40.0527" height="384.403" fill="#122120"/>
<rect x="4501.18" y="1686.48" width="40.0527" height="384.403" fill="#122120"/>
<rect width="550.631" height="386.775" transform="matrix(-1 -2.58096e-08 -2.58096e-08 1 4694.3 675.691)" fill="#3B5034"/>
<rect width="196.246" height="48.5851" transform="matrix(-1 -2.58096e-08 -2.58096e-08 1 4517.1 627.105)" fill="#3B5034"/>
<path d="M5053.8 869.079L4694.3 675.691L4694.3 1062.47L5053.8 869.079Z" fill="#FF0000"/>
<path d="M5053.8 869.079L4694.3 675.692L4694.3 980.023L5053.8 869.079Z" fill="#FFA928"/>
<rect width="18" height="150" transform="matrix(-4.37114e-08 1 1 4.37114e-08 4483.44 869.078)" fill="#122120"/>
<path d="M5025.61 1360.12L5260.67 1767.25L5495.72 1360.12L5025.61 1360.12Z" fill="#A31717"/>
<rect width="415.67" height="653.379" transform="matrix(-1 0 0 1 5260.67 1120.48)" fill="#B55D38"/>
<path d="M4965.18 1727.96L5153.3 1118.07L4777.07 1118.07L4965.18 1727.96Z" fill="#D5863D"/>
<rect width="36.4078" height="349.421" transform="matrix(-1 0 0 1 5121.53 1711.71)" fill="#122120"/>
<rect width="36.4078" height="349.421" transform="matrix(-1 0 0 1 4924.11 1711.71)" fill="#122120"/>
<rect x="4585.22" y="1015" width="588.662" height="413.489" transform="rotate(-30 4585.22 1015)" fill="#9A7D71"/>
<rect x="4723.3" y="875.305" width="209.8" height="51.9407" transform="rotate(-30 4723.3 875.305)" fill="#9A7D71"/>
<path d="M4355.75 1386.22L4585.22 1015L4791.97 1373.09L4355.75 1386.22Z" fill="#FF0000"/>
<path d="M4355.75 1386.22L4585.22 1015L4747.9 1296.76L4355.75 1386.22Z" fill="#FFA928"/>
<rect width="18" height="150" transform="matrix(0.5 0.866025 0.866025 -0.5 4823.14 1119.32)" fill="#122120"/>
<path d="M2729.03 1292.59L2281.41 2067.89L1833.79 1292.59L2729.03 1292.59Z" fill="#463F73"/>
<rect x="2281.41" y="836.246" width="791.563" height="1244.23" fill="#3B4B82"/>
<path d="M2844.11 1993.08L2485.88 831.661L3202.33 831.661L2844.11 1993.08Z" fill="#4F0C0C"/>
<rect x="2546.38" y="1962.12" width="69.3315" height="665.405" fill="#122120"/>
<rect x="2922.32" y="1962.12" width="69.3315" height="665.405" fill="#122120"/>
<rect width="953.147" height="669.511" transform="matrix(-0.965926 -0.258819 -0.258819 0.965926 3357.87 396.947)" fill="#083650"/>
<rect width="339.703" height="84.1012" transform="matrix(-0.965926 -0.258819 -0.258819 0.965926 3083.36 236.326)" fill="#083650"/>
<circle cx="249.83" cy="249.83" r="249.83" transform="matrix(-0.965926 -0.258819 -0.258819 0.965926 3116.87 420.293)" fill="white"/>
<path d="M3872.33 881.36L3357.87 396.944L3184.59 1043.64L3872.33 881.36Z" fill="#FF0000"/>
<path d="M3872.34 881.36L3357.87 396.944L3221.52 905.795L3872.34 881.36Z" fill="#FFA928"/>
<rect width="570.087" height="152.964" transform="matrix(-0.965926 -0.258819 -0.258819 0.965926 3076.13 824.463)" fill="#083650"/>
<path d="M2899.16 718.746C2894.1 712.441 2881.47 700.149 2871.09 691.431C2840.33 665.599 2836.15 661.861 2823.66 649.072C2800.64 625.496 2790.86 601.81 2790.9 569.693C2790.91 554.015 2791.87 547.975 2795.82 538.734C2802.52 523.055 2812.38 511.404 2825 504.279C2833.93 499.232 2838.34 496.99 2853.25 496.898C2868.86 496.802 2872.15 498.826 2881.33 504.435C2892.5 511.262 2904 525.852 2906.38 536.217L2907.84 542.618L2911.47 533.802C2931.93 483.981 2997.25 484.727 3019.99 535.04C3027.2 551.001 3027.99 585.081 3021.6 604.279C3013.25 629.321 2997.58 648.412 2961.36 677.668C2937.61 696.855 2910.73 725.885 2908.86 729.962C2906.68 734.695 2908.75 730.704 2899.16 718.746Z" fill="black"/>
<path d="M4829.24 679.395V673.002L4860.21 633.23V632.662H4830.24V624.849H4871.01V631.525L4840.89 671.014V671.582H4872V679.395H4829.24Z" fill="white"/>
<path d="M4887.3 652.158V642.57L4933.75 582.911V582.059H4888.79V570.34H4949.94V580.354L4904.77 639.587V640.439H4951.43V652.158H4887.3Z" fill="white"/>
<path d="M4975.23 627.619V614.835L5037.16 535.29V534.153H4977.22V518.528H5058.76V531.881L4998.53 610.858V611.994H5060.74V627.619H4975.23Z" fill="white"/>
<path d="M5930.51 764.395V758.002L5961.48 718.23V717.662H5931.51V709.849H5972.27V716.525L5942.16 756.014V756.582H5973.27V764.395H5930.51Z" fill="white"/>
<path d="M5834.77 728.395V718.806L5881.22 659.147V658.295H5836.26V646.576H5897.41V656.591L5852.24 715.824V716.676H5898.9V728.395H5834.77Z" fill="white"/>
<path d="M5728.82 655.395V642.61L5790.75 563.065V561.929H5730.81V546.304H5812.34V559.656L5752.12 638.633V639.77H5814.33V655.395H5728.82Z" fill="white"/>
<path d="M5595.87 569.953V553.973L5673.29 454.541V453.121H5598.36V433.589H5700.28V450.28L5624.99 549.001V550.422H5702.76V569.953H5595.87Z" fill="white"/>
</svg>
