<svg width="11369" height="2912" viewBox="0 0 11369 2912" fill="none" xmlns="http://www.w3.org/2000/svg">
<rect x="0.660156" width="11367.8" height="2911.41" fill="#C9E5FF"/>
<path d="M9798.61 2157.6L9235.6 2246.14L9235.6 2069.07L9798.61 2157.6Z" fill="#5A4D47"/>
<rect x="0.660156" y="2069.07" width="9234.94" height="177.073" fill="#5A4D47"/>
<rect x="0.660156" width="1233.34" height="2911.41" fill="#38322F"/>
<path d="M4978.39 1554.1V1328.38H5037.05V1710.2H4978.39V1645.57H4974.41C4965.46 1664.96 4951.54 1681.45 4932.65 1695.04C4913.76 1708.46 4889.9 1715.17 4861.06 1715.17C4837.2 1715.17 4815.98 1709.95 4797.42 1699.51C4778.86 1688.91 4764.28 1673 4753.67 1651.79C4743.07 1630.41 4737.76 1603.48 4737.76 1571V1328.38H4796.43V1567.02C4796.43 1594.86 4804.22 1617.07 4819.8 1633.64C4835.54 1650.21 4855.59 1658.5 4879.95 1658.5C4894.54 1658.5 4909.37 1654.77 4924.45 1647.31C4939.69 1639.86 4952.45 1628.42 4962.73 1613.01C4973.17 1597.6 4978.39 1577.96 4978.39 1554.1ZM5414.96 1413.9L5362.26 1428.81C5358.94 1420.03 5354.06 1411.49 5347.59 1403.21C5341.29 1394.76 5332.68 1387.8 5321.74 1382.33C5310.8 1376.86 5296.8 1374.12 5279.73 1374.12C5256.36 1374.12 5236.89 1379.51 5221.31 1390.28C5205.9 1400.89 5198.2 1414.39 5198.2 1430.8C5198.2 1445.38 5203.5 1456.9 5214.11 1465.35C5224.71 1473.8 5241.28 1480.85 5263.82 1486.48L5320.5 1500.4C5354.64 1508.69 5380.07 1521.37 5396.81 1538.43C5413.55 1555.34 5421.92 1577.13 5421.92 1603.81C5421.92 1625.69 5415.62 1645.24 5403.03 1662.48C5390.6 1679.71 5373.2 1693.3 5350.82 1703.24C5328.45 1713.19 5302.43 1718.16 5272.77 1718.16C5233.83 1718.16 5201.59 1709.71 5176.07 1692.8C5150.55 1675.9 5134.39 1651.21 5127.6 1618.73L5183.28 1604.81C5188.58 1625.35 5198.61 1640.77 5213.36 1651.04C5228.27 1661.32 5247.75 1666.45 5271.78 1666.45C5299.12 1666.45 5320.83 1660.65 5336.9 1649.05C5353.14 1637.29 5361.26 1623.2 5361.26 1606.79C5361.26 1593.54 5356.62 1582.43 5347.34 1573.48C5338.06 1564.37 5323.81 1557.58 5304.59 1553.1L5240.95 1538.19C5205.98 1529.9 5180.3 1517.06 5163.89 1499.66C5147.65 1482.09 5139.53 1460.13 5139.53 1433.78C5139.53 1412.24 5145.58 1393.18 5157.68 1376.61C5169.94 1360.04 5186.6 1347.03 5207.64 1337.58C5228.85 1328.14 5252.88 1323.41 5279.73 1323.41C5317.51 1323.41 5347.18 1331.7 5368.72 1348.27C5390.43 1364.84 5405.84 1386.72 5414.96 1413.9ZM5622.58 1719.15C5598.39 1719.15 5576.43 1714.59 5556.71 1705.48C5536.99 1696.2 5521.33 1682.86 5509.73 1665.46C5498.13 1647.89 5492.33 1626.68 5492.33 1601.82C5492.33 1579.95 5496.64 1562.22 5505.25 1548.63C5513.87 1534.87 5525.39 1524.1 5539.81 1516.31C5554.22 1508.52 5570.13 1502.72 5587.53 1498.91C5605.1 1494.93 5622.75 1491.78 5640.48 1489.46C5663.68 1486.48 5682.49 1484.24 5696.91 1482.75C5711.49 1481.1 5722.1 1478.36 5728.73 1474.55C5735.52 1470.74 5738.92 1464.11 5738.92 1454.66V1452.67C5738.92 1428.15 5732.21 1409.09 5718.78 1395.5C5705.53 1381.91 5685.39 1375.12 5658.38 1375.12C5630.37 1375.12 5608.41 1381.25 5592.51 1393.51C5576.6 1405.78 5565.41 1418.87 5558.95 1432.79L5503.27 1412.9C5513.21 1389.7 5526.47 1371.64 5543.04 1358.71C5559.78 1345.62 5578 1336.51 5597.73 1331.37C5617.61 1326.06 5637.17 1323.41 5656.39 1323.41C5668.65 1323.41 5682.74 1324.9 5698.65 1327.89C5714.72 1330.7 5730.22 1336.59 5745.13 1345.54C5760.21 1354.49 5772.73 1367.99 5782.67 1386.06C5792.61 1404.12 5797.58 1428.31 5797.58 1458.64V1710.2H5738.92V1658.5H5735.94C5731.96 1666.78 5725.33 1675.65 5716.05 1685.1C5706.77 1694.54 5694.42 1702.58 5679.01 1709.21C5663.6 1715.84 5644.79 1719.15 5622.58 1719.15ZM5631.53 1666.45C5654.73 1666.45 5674.29 1661.9 5690.2 1652.78C5706.27 1643.67 5718.37 1631.9 5726.49 1617.48C5734.78 1603.07 5738.92 1587.9 5738.92 1571.99V1518.3C5736.43 1521.28 5730.96 1524.02 5722.51 1526.5C5714.23 1528.82 5704.61 1530.89 5693.68 1532.72C5682.91 1534.37 5672.38 1535.87 5662.11 1537.19C5652 1538.35 5643.8 1539.35 5637.5 1540.17C5622.25 1542.16 5608 1545.39 5594.74 1549.87C5581.65 1554.18 5571.04 1560.72 5562.92 1569.51C5554.97 1578.12 5550.99 1589.89 5550.99 1604.81C5550.99 1625.19 5558.53 1640.6 5573.61 1651.04C5588.86 1661.32 5608.17 1666.45 5631.53 1666.45ZM6058.78 1861.34C6030.44 1861.34 6006.08 1857.69 5985.7 1850.4C5965.31 1843.28 5948.33 1833.83 5934.74 1822.06C5921.31 1810.46 5910.62 1798.03 5902.67 1784.78L5949.4 1751.96C5954.71 1758.92 5961.42 1766.88 5969.54 1775.83C5977.66 1784.94 5988.76 1792.81 6002.85 1799.44C6017.1 1806.24 6035.74 1809.63 6058.78 1809.63C6089.6 1809.63 6115.04 1802.18 6135.09 1787.26C6155.14 1772.35 6165.17 1748.98 6165.17 1717.16V1639.61H6160.2C6155.89 1646.57 6149.76 1655.18 6141.8 1665.46C6134.02 1675.57 6122.75 1684.6 6108 1692.55C6093.41 1700.34 6073.69 1704.24 6048.84 1704.24C6018.01 1704.24 5990.34 1696.95 5965.81 1682.36C5941.45 1667.78 5922.14 1646.57 5907.89 1618.73C5893.8 1590.88 5886.76 1557.08 5886.76 1517.31C5886.76 1478.2 5893.64 1444.14 5907.39 1415.14C5921.15 1385.97 5940.29 1363.43 5964.82 1347.53C5989.34 1331.45 6017.68 1323.41 6049.83 1323.41C6074.69 1323.41 6094.41 1327.56 6108.99 1335.84C6123.74 1343.96 6135.01 1353.24 6142.8 1363.68C6150.75 1373.96 6156.88 1382.41 6161.19 1389.04H6167.16V1328.38H6223.84V1721.14C6223.84 1753.95 6216.38 1780.63 6201.46 1801.18C6186.71 1821.9 6166.83 1837.06 6141.8 1846.67C6116.95 1856.45 6089.27 1861.34 6058.78 1861.34ZM6056.79 1651.54C6080.32 1651.54 6100.21 1646.15 6116.45 1635.38C6132.69 1624.61 6145.04 1609.11 6153.49 1588.9C6161.94 1568.68 6166.16 1544.48 6166.16 1516.31C6166.16 1488.8 6162.02 1464.52 6153.74 1443.48C6145.45 1422.43 6133.19 1405.94 6116.95 1394.01C6100.71 1382.08 6080.65 1376.11 6056.79 1376.11C6031.93 1376.11 6011.22 1382.41 5994.64 1395C5978.24 1407.6 5965.89 1424.5 5957.61 1445.71C5949.49 1466.93 5945.43 1490.46 5945.43 1516.31C5945.43 1542.83 5949.57 1566.28 5957.86 1586.66C5966.31 1606.88 5978.74 1622.79 5995.14 1634.39C6011.71 1645.82 6032.26 1651.54 6056.79 1651.54ZM6491.31 1718.16C6454.52 1718.16 6422.78 1710.04 6396.1 1693.8C6369.59 1677.39 6349.12 1654.52 6334.7 1625.19C6320.45 1595.69 6313.32 1561.39 6313.32 1522.28C6313.32 1483.17 6320.45 1448.7 6334.7 1418.87C6349.12 1388.87 6369.17 1365.51 6394.86 1348.77C6420.71 1331.87 6450.87 1323.41 6485.34 1323.41C6505.23 1323.41 6524.86 1326.73 6544.25 1333.36C6563.64 1339.99 6581.29 1350.76 6597.2 1365.67C6613.11 1380.42 6625.79 1399.98 6635.23 1424.34C6644.68 1448.7 6649.4 1478.69 6649.4 1514.32V1539.18H6355.09V1488.47H6589.74C6589.74 1466.93 6585.44 1447.7 6576.82 1430.8C6568.37 1413.9 6556.27 1400.56 6540.53 1390.78C6524.95 1381 6506.55 1376.11 6485.34 1376.11C6461.97 1376.11 6441.76 1381.91 6424.69 1393.51C6407.78 1404.95 6394.78 1419.86 6385.66 1438.26C6376.55 1456.65 6371.99 1476.37 6371.99 1497.42V1531.23C6371.99 1560.06 6376.96 1584.5 6386.9 1604.56C6397.01 1624.44 6411.02 1639.61 6428.91 1650.05C6446.81 1660.32 6467.61 1665.46 6491.31 1665.46C6506.72 1665.46 6520.64 1663.3 6533.07 1659C6545.66 1654.52 6556.52 1647.89 6565.63 1639.11C6574.75 1630.16 6581.79 1619.06 6586.76 1605.8L6643.44 1621.71C6637.47 1640.93 6627.45 1657.84 6613.36 1672.42C6599.27 1686.84 6581.87 1698.11 6561.16 1706.23C6540.44 1714.18 6517.16 1718.16 6491.31 1718.16Z" fill="black"/>
<path d="M8765.49 1368.06L9000.55 1775.19L9235.6 1368.06L8765.49 1368.06Z" fill="#38717D"/>
<rect width="415.67" height="653.379" transform="matrix(-1 0 0 1 9000.55 1128.42)" fill="#378AA4"/>
<path d="M8705.06 1735.9L8893.18 1126.01L8516.95 1126.01L8705.06 1735.9Z" fill="#83A7BC"/>
<rect width="36.4078" height="349.421" transform="matrix(-1 0 0 1 8861.41 1719.65)" fill="#122120"/>
<rect width="36.4078" height="349.421" transform="matrix(-1 0 0 1 8663.99 1719.65)" fill="#122120"/>
<rect x="8488.45" y="800.843" width="500.522" height="351.577" fill="#188275"/>
<rect x="8649.52" y="756.679" width="178.387" height="44.1637" fill="#188275"/>
<circle cx="8738.71" cy="976.632" r="131.192" fill="white"/>
<path d="M8161.66 976.632L8488.45 800.843L8488.45 1152.42L8161.66 976.632Z" fill="#FF0000"/>
<path d="M8161.66 976.632L8488.45 800.843L8488.45 1077.48L8161.66 976.632Z" fill="#FFA928"/>
<circle cx="8705.06" cy="976.632" r="27.6194" fill="black"/>
</svg>
